<!DOCTYPE svg PUBLIC "-//W3C//DTD SVG 1.1//EN" "http://www.w3.org/Graphics/SVG/1.1/DTD/svg11.dtd">
<svg xmlns="http://www.w3.org/2000/svg" xmlns:xlink="http://www.w3.org/1999/xlink" xmlns:jfreesvg="http://www.jfree.org/jfreesvg/svg" width="600" height="400" text-rendering="auto" shape-rendering="auto">
<defs><clipPath id="_1568663162160600clip-0"><path d="M 0.0 0.0 L 600.0 0.0 L 600.0 400.0 L 0.0 400.0 L 0.0 0.0 Z "/></clipPath>
<clipPath id="_1568663162160600clip-1"><path d="M 208.0 167.0 L 208.0 767.0 L -192.0 767.0 L -192.0 167.0 L 208.0 167.0 Z "/></clipPath>
<clipPath id="_1568663162160600clip-2"><path d="M 75.0 55.0 L 75.0 320.0 L 588.0 320.0 L 588.0 55.0 Z "/></clipPath>
</defs>
<rect x="0.0" y="0.0" width="600.0" height="400.0" style="fill: rgb(255,255,255); fill-opacity: 1.0" clip-path="url(#_1568663162160600clip-0)"/><g ><text x="281.5" y="19.0966" style="fill: rgb(0,0,0); fill-opacity: 1.0; font-family: sans-serif; font-size: 18px; font-weight: bold;" clip-path="url(#_1568663162160600clip-0)">Title</text></g><rect x="264.0" y="374.0" width="72.0" height="25.0" style="fill: rgb(255,255,255); fill-opacity: 1.0" clip-path="url(#_1568663162160600clip-0)"/><g style="stroke-width: 3.0;stroke: rgb(0,255,0);stroke-opacity: 1.0;stroke-linecap: round;stroke-linejoin: bevel;shape-rendering:geometricPrecision;; fill: none" clip-path="url(#_1568663162160600clip-0)"><path d="M 267.0 386.5 L 281.0 386.5"/></g><g ><text x="285.0" y="391.0751" style="fill: rgb(64,64,64); fill-opacity: 1.0; font-family: sans-serif; font-size: 14px;" clip-path="url(#_1568663162160600clip-0)">Dataset</text></g><g ><text x="276.5" y="41.0751" style="fill: rgb(0,0,0); fill-opacity: 1.0; font-family: sans-serif; font-size: 14px;" clip-path="url(#_1568663162160600clip-0)">Subtitle</text></g><rect x="75.0" y="55.0" width="513.0" height="265.0" style="fill: rgb(192,192,192); fill-opacity: 1.0" clip-path="url(#_1568663162160600clip-0)"/><line x1="75.0" y1="324.0" x2="588.0" y2="324.0" style="stroke-width: 0.5;stroke: rgb(128,128,128);stroke-opacity: 1.0;stroke-linecap: square;shape-rendering:crispEdges;" clip-path="url(#_1568663162160600clip-0)"/><g ><text x="60.0" y="340.9707" style="fill: rgb(64,64,64); fill-opacity: 1.0; font-family: sans-serif; font-size: 12px;" clip-path="url(#_1568663162160600clip-0)">01:01</text></g><line x1="75.0" y1="326.0" x2="75.0" y2="324.0" style="stroke-width: 0.5;stroke: rgb(128,128,128);stroke-opacity: 1.0;stroke-linecap: square;shape-rendering:crispEdges;" clip-path="url(#_1568663162160600clip-0)"/><g ><text x="160.5882" y="340.9707" style="fill: rgb(64,64,64); fill-opacity: 1.0; font-family: sans-serif; font-size: 12px;" clip-path="url(#_1568663162160600clip-0)">01:02</text></g><line x1="175.5882" y1="326.0" x2="175.5882" y2="324.0" style="stroke-width: 0.5;stroke: rgb(128,128,128);stroke-opacity: 1.0;stroke-linecap: square;shape-rendering:crispEdges;" clip-path="url(#_1568663162160600clip-0)"/><g ><text x="261.1764" y="340.9707" style="fill: rgb(64,64,64); fill-opacity: 1.0; font-family: sans-serif; font-size: 12px;" clip-path="url(#_1568663162160600clip-0)">01:03</text></g><line x1="276.1764" y1="326.0" x2="276.1764" y2="324.0" style="stroke-width: 0.5;stroke: rgb(128,128,128);stroke-opacity: 1.0;stroke-linecap: square;shape-rendering:crispEdges;" clip-path="url(#_1568663162160600clip-0)"/><g ><text x="361.7647" y="340.9707" style="fill: rgb(64,64,64); fill-opacity: 1.0; font-family: sans-serif; font-size: 12px;" clip-path="url(#_1568663162160600clip-0)">01:04</text></g><line x1="376.7647" y1="326.0" x2="376.7647" y2="324.0" style="stroke-width: 0.5;stroke: rgb(128,128,128);stroke-opacity: 1.0;stroke-linecap: square;shape-rendering:crispEdges;" clip-path="url(#_1568663162160600clip-0)"/><g ><text x="462.3529" y="340.9707" style="fill: rgb(64,64,64); fill-opacity: 1.0; font-family: sans-serif; font-size: 12px;" clip-path="url(#_1568663162160600clip-0)">01:05</text></g><line x1="477.3529" y1="326.0" x2="477.3529" y2="324.0" style="stroke-width: 0.5;stroke: rgb(128,128,128);stroke-opacity: 1.0;stroke-linecap: square;shape-rendering:crispEdges;" clip-path="url(#_1568663162160600clip-0)"/><g ><text x="562.9411" y="340.9707" style="fill: rgb(64,64,64); fill-opacity: 1.0; font-family: sans-serif; font-size: 12px;" clip-path="url(#_1568663162160600clip-0)">01:06</text></g><line x1="577.9411" y1="326.0" x2="577.9411" y2="324.0" style="stroke-width: 0.5;stroke: rgb(128,128,128);stroke-opacity: 1.0;stroke-linecap: square;shape-rendering:crispEdges;" clip-path="url(#_1568663162160600clip-0)"/><g ><text x="292.0" y="361.5595" style="fill: rgb(64,64,64); fill-opacity: 1.0; font-family: sans-serif; font-size: 14px; font-weight: bold;" clip-path="url(#_1568663162160600clip-0)">X AxisLabel</text></g><line x1="71.0" y1="55.0" x2="71.0" y2="320.0" style="stroke-width: 0.5;stroke: rgb(128,128,128);stroke-opacity: 1.0;stroke-linecap: square;shape-rendering:crispEdges;" clip-path="url(#_1568663162160600clip-0)"/><g ><text x="35.0" y="296.8646" style="fill: rgb(64,64,64); fill-opacity: 1.0; font-family: sans-serif; font-size: 12px;" clip-path="url(#_1568663162160600clip-0)">126.0</text></g><line x1="69.0" y1="291.8939" x2="71.0" y2="291.8939" style="stroke-width: 0.5;stroke: rgb(128,128,128);stroke-opacity: 1.0;stroke-linecap: square;shape-rendering:crispEdges;" clip-path="url(#_1568663162160600clip-0)"/><g ><text x="35.0" y="256.7131" style="fill: rgb(64,64,64); fill-opacity: 1.0; font-family: sans-serif; font-size: 12px;" clip-path="url(#_1568663162160600clip-0)">126.5</text></g><line x1="69.0" y1="251.7424" x2="71.0" y2="251.7424" style="stroke-width: 0.5;stroke: rgb(128,128,128);stroke-opacity: 1.0;stroke-linecap: square;shape-rendering:crispEdges;" clip-path="url(#_1568663162160600clip-0)"/><g ><text x="35.0" y="216.5616" style="fill: rgb(64,64,64); fill-opacity: 1.0; font-family: sans-serif; font-size: 12px;" clip-path="url(#_1568663162160600clip-0)">127.0</text></g><line x1="69.0" y1="211.5909" x2="71.0" y2="211.5909" style="stroke-width: 0.5;stroke: rgb(128,128,128);stroke-opacity: 1.0;stroke-linecap: square;shape-rendering:crispEdges;" clip-path="url(#_1568663162160600clip-0)"/><g ><text x="35.0" y="176.4100" style="fill: rgb(64,64,64); fill-opacity: 1.0; font-family: sans-serif; font-size: 12px;" clip-path="url(#_1568663162160600clip-0)">127.5</text></g><line x1="69.0" y1="171.4393" x2="71.0" y2="171.4393" style="stroke-width: 0.5;stroke: rgb(128,128,128);stroke-opacity: 1.0;stroke-linecap: square;shape-rendering:crispEdges;" clip-path="url(#_1568663162160600clip-0)"/><g ><text x="35.0" y="136.2585" style="fill: rgb(64,64,64); fill-opacity: 1.0; font-family: sans-serif; font-size: 12px;" clip-path="url(#_1568663162160600clip-0)">128.0</text></g><line x1="69.0" y1="131.2878" x2="71.0" y2="131.2878" style="stroke-width: 0.5;stroke: rgb(128,128,128);stroke-opacity: 1.0;stroke-linecap: square;shape-rendering:crispEdges;" clip-path="url(#_1568663162160600clip-0)"/><g ><text x="35.0" y="96.1070" style="fill: rgb(64,64,64); fill-opacity: 1.0; font-family: sans-serif; font-size: 12px;" clip-path="url(#_1568663162160600clip-0)">128.5</text></g><line x1="69.0" y1="91.1363" x2="71.0" y2="91.1363" style="stroke-width: 0.5;stroke: rgb(128,128,128);stroke-opacity: 1.0;stroke-linecap: square;shape-rendering:crispEdges;" clip-path="url(#_1568663162160600clip-0)"/><g style="fill: rgb(64,64,64); fill-opacity: 1.0; stroke: none" transform="matrix(0.0,-1.0,1.0,0.0,-167.0,208.0)" clip-path="url(#_1568663162160600clip-1)"><path d="M -15.3437 193.4658 L -15.3437 189.2470 L -19.0156 183.4501 L -16.6406 183.4501 L -14.2968 187.4033 L -11.9843 183.4501 L -9.6406 183.4501 L -13.3281 189.2626 L -13.3281 193.4658 L -15.3437 193.4658 Z  M 4.2900 193.4658 L 2.0869 193.4658 L 1.2119 191.1845 L -2.8037 191.1845 L -3.6318 193.4658 L -5.7724 193.4658 L -1.8662 183.4501 L 0.2744 183.4501 L 4.2900 193.4658 Z  M 0.5556 189.4970 L -0.8193 185.7783 L -2.1787 189.4970 L 0.5556 189.4970 Z  M 4.4160 193.4658 L 7.0410 189.7314 L 4.5253 186.2001 L 6.8691 186.2001 L 8.1660 188.2001 L 9.5097 186.2001 L 11.7753 186.2001 L 9.3066 189.6376 L 11.9941 193.4658 L 9.6347 193.4658 L 8.1660 191.2158 L 6.6660 193.4658 L 4.4160 193.4658 Z  M 13.1240 185.2158 L 13.1240 183.4501 L 15.0458 183.4501 L 15.0458 185.2158 L 13.1240 185.2158 Z  M 13.1240 193.4658 L 13.1240 186.2001 L 15.0458 186.2001 L 15.0458 193.4658 L 13.1240 193.4658 Z  M 16.3417 191.3876 L 18.2636 191.1064 Q 18.3886 191.6533 18.7636 191.9501 Q 19.1386 192.2470 19.8261 192.2470 Q 20.5605 192.2470 20.9355 191.9658 Q 21.2011 191.7783 21.2011 191.4501 Q 21.2011 191.2314 21.0605 191.0908 Q 20.9199 190.9501 20.4199 190.8408 Q 18.0917 190.3251 17.4667 189.9033 Q 16.6074 189.3095 16.6074 188.2626 Q 16.6074 187.3251 17.3417 186.6845 Q 18.0917 186.0439 19.6699 186.0439 Q 21.1542 186.0439 21.8730 186.5283 Q 22.6074 187.0126 22.8730 187.9658 L 21.0605 188.2939 Q 20.9511 187.8720 20.6230 187.6533 Q 20.2949 187.4189 19.7011 187.4189 Q 18.9355 187.4189 18.6074 187.6376 Q 18.3886 187.7783 18.3886 188.0283 Q 18.3886 188.2314 18.5917 188.3720 Q 18.8417 188.5595 20.3730 188.9189 Q 21.9199 189.2626 22.5292 189.7626 Q 23.1230 190.2783 23.1230 191.2001 Q 23.1230 192.2001 22.2792 192.9189 Q 21.4511 193.6376 19.8261 193.6376 Q 18.3417 193.6376 17.4667 193.0283 Q 16.6074 192.4189 16.3417 191.3876 Z  M 24.8779 193.4658 L 24.8779 183.5283 L 26.8935 183.5283 L 26.8935 191.7783 L 31.9248 191.7783 L 31.9248 193.4658 L 24.8779 193.4658 Z  M 34.7890 188.4189 L 33.0546 188.1064 Q 33.3359 187.0595 34.0546 186.5595 Q 34.7734 186.0439 36.1953 186.0439 Q 37.4765 186.0439 38.1015 186.3564 Q 38.7421 186.6533 38.9921 187.1220 Q 39.2421 187.5908 39.2421 188.8408 L 39.2265 191.0751 Q 39.2265 192.0439 39.3203 192.4970 Q 39.4140 192.9501 39.6640 193.4658 L 37.7734 193.4658 Q 37.6953 193.2783 37.5859 192.9033 Q 37.5390 192.7314 37.5078 192.6689 Q 37.0234 193.1533 36.4609 193.4033 Q 35.8984 193.6376 35.2578 193.6376 Q 34.1484 193.6376 33.4921 193.0283 Q 32.8515 192.4189 32.8515 191.4814 Q 32.8515 190.8720 33.1484 190.3876 Q 33.4453 189.9033 33.9609 189.6533 Q 34.4921 189.3876 35.4921 189.2001 Q 36.8359 188.9501 37.3671 188.7314 L 37.3671 188.5439 Q 37.3671 187.9814 37.0859 187.7470 Q 36.8203 187.5126 36.0546 187.5126 Q 35.5390 187.5126 35.2578 187.7158 Q 34.9765 187.9189 34.7890 188.4189 Z  M 37.3671 189.9814 Q 36.9921 190.1064 36.1953 190.2783 Q 35.3984 190.4501 35.1484 190.6064 Q 34.7734 190.8720 34.7734 191.2783 Q 34.7734 191.6845 35.0703 191.9814 Q 35.3671 192.2783 35.8359 192.2783 Q 36.3515 192.2783 36.8359 191.9345 Q 37.1796 191.6689 37.2890 191.2939 Q 37.3671 191.0595 37.3671 190.3564 L 37.3671 189.9814 Z  M 41.0595 193.4658 L 41.0595 183.4501 L 42.9814 183.4501 L 42.9814 187.0595 Q 43.8720 186.0439 45.0908 186.0439 Q 46.4189 186.0439 47.2783 187.0126 Q 48.1533 187.9658 48.1533 189.7626 Q 48.1533 191.6220 47.2626 192.6376 Q 46.3720 193.6376 45.1220 193.6376 Q 44.4970 193.6376 43.8876 193.3251 Q 43.2783 193.0126 42.8408 192.4033 L 42.8408 193.4658 L 41.0595 193.4658 Z  M 42.9658 189.6845 Q 42.9658 190.8095 43.3251 191.3408 Q 43.8251 192.1064 44.6533 192.1064 Q 45.2783 192.1064 45.7314 191.5751 Q 46.1845 191.0283 46.1845 189.8564 Q 46.1845 188.6064 45.7314 188.0595 Q 45.2783 187.5126 44.5751 187.5126 Q 43.8876 187.5126 43.4189 188.0595 Q 42.9658 188.5908 42.9658 189.6845 Z  M 53.8925 191.1533 L 55.8144 191.4814 Q 55.4394 192.5283 54.6425 193.0908 Q 53.8457 193.6376 52.6582 193.6376 Q 50.7675 193.6376 49.8457 192.3876 Q 49.1269 191.4033 49.1269 189.8876 Q 49.1269 188.0908 50.0644 187.0751 Q 51.0175 186.0439 52.4707 186.0439 Q 54.0800 186.0439 55.0175 187.1220 Q 55.9550 188.1845 55.9082 190.3876 L 51.0957 190.3876 Q 51.1269 191.2470 51.5644 191.7314 Q 52.0175 192.2001 52.6738 192.2001 Q 53.1269 192.2001 53.4238 191.9501 Q 53.7363 191.7001 53.8925 191.1533 Z  M 54.0019 189.2158 Q 53.9863 188.3720 53.5800 187.9501 Q 53.1738 187.5126 52.5800 187.5126 Q 51.9550 187.5126 51.5332 187.9658 Q 51.1269 188.4345 51.1425 189.2158 L 54.0019 189.2158 Z  M 57.4755 193.4658 L 57.4755 183.4501 L 59.3974 183.4501 L 59.3974 193.4658 L 57.4755 193.4658 Z "/></g><line x1="75.0" y1="55.0" x2="75.0" y2="320.0" style="stroke-width: 0.5;stroke: rgb(128,128,128);stroke-opacity: 1.0;stroke-linejoin: bevel;stroke-dasharray: 2.0, 2.0;shape-rendering:crispEdges;" clip-path="url(#_1568663162160600clip-2)"/><line x1="175.5882" y1="55.0" x2="175.5882" y2="320.0" style="stroke-width: 0.5;stroke: rgb(128,128,128);stroke-opacity: 1.0;stroke-linejoin: bevel;stroke-dasharray: 2.0, 2.0;shape-rendering:crispEdges;" clip-path="url(#_1568663162160600clip-2)"/><line x1="276.1764" y1="55.0" x2="276.1764" y2="320.0" style="stroke-width: 0.5;stroke: rgb(128,128,128);stroke-opacity: 1.0;stroke-linejoin: bevel;stroke-dasharray: 2.0, 2.0;shape-rendering:crispEdges;" clip-path="url(#_1568663162160600clip-2)"/><line x1="376.7647" y1="55.0" x2="376.7647" y2="320.0" style="stroke-width: 0.5;stroke: rgb(128,128,128);stroke-opacity: 1.0;stroke-linejoin: bevel;stroke-dasharray: 2.0, 2.0;shape-rendering:crispEdges;" clip-path="url(#_1568663162160600clip-2)"/><line x1="477.3529" y1="55.0" x2="477.3529" y2="320.0" style="stroke-width: 0.5;stroke: rgb(128,128,128);stroke-opacity: 1.0;stroke-linejoin: bevel;stroke-dasharray: 2.0, 2.0;shape-rendering:crispEdges;" clip-path="url(#_1568663162160600clip-2)"/><line x1="577.9411" y1="55.0" x2="577.9411" y2="320.0" style="stroke-width: 0.5;stroke: rgb(128,128,128);stroke-opacity: 1.0;stroke-linejoin: bevel;stroke-dasharray: 2.0, 2.0;shape-rendering:crispEdges;" clip-path="url(#_1568663162160600clip-2)"/><line x1="75.0" y1="291.8939" x2="588.0" y2="291.8939" style="stroke-width: 0.5;stroke: rgb(128,128,128);stroke-opacity: 1.0;stroke-linejoin: bevel;stroke-dasharray: 2.0, 2.0;shape-rendering:crispEdges;" clip-path="url(#_1568663162160600clip-2)"/><line x1="75.0" y1="251.7424" x2="588.0" y2="251.7424" style="stroke-width: 0.5;stroke: rgb(128,128,128);stroke-opacity: 1.0;stroke-linejoin: bevel;stroke-dasharray: 2.0, 2.0;shape-rendering:crispEdges;" clip-path="url(#_1568663162160600clip-2)"/><line x1="75.0" y1="211.5909" x2="588.0" y2="211.5909" style="stroke-width: 0.5;stroke: rgb(128,128,128);stroke-opacity: 1.0;stroke-linejoin: bevel;stroke-dasharray: 2.0, 2.0;shape-rendering:crispEdges;" clip-path="url(#_1568663162160600clip-2)"/><line x1="75.0" y1="171.4393" x2="588.0" y2="171.4393" style="stroke-width: 0.5;stroke: rgb(128,128,128);stroke-opacity: 1.0;stroke-linejoin: bevel;stroke-dasharray: 2.0, 2.0;shape-rendering:crispEdges;" clip-path="url(#_1568663162160600clip-2)"/><line x1="75.0" y1="131.2878" x2="588.0" y2="131.2878" style="stroke-width: 0.5;stroke: rgb(128,128,128);stroke-opacity: 1.0;stroke-linejoin: bevel;stroke-dasharray: 2.0, 2.0;shape-rendering:crispEdges;" clip-path="url(#_1568663162160600clip-2)"/><line x1="75.0" y1="91.1363" x2="588.0" y2="91.1363" style="stroke-width: 0.5;stroke: rgb(128,128,128);stroke-opacity: 1.0;stroke-linejoin: bevel;stroke-dasharray: 2.0, 2.0;shape-rendering:crispEdges;" clip-path="url(#_1568663162160600clip-2)"/><g style="stroke-width: 3.0;stroke: rgb(0,255,0);stroke-opacity: 1.0;stroke-linecap: round;stroke-linejoin: bevel;shape-rendering:geometricPrecision;; fill: none" clip-path="url(#_1568663162160600clip-2)"><path d="M 75.0 227.6515 L 175.5882 147.3484 L 276.1764 307.9545 L 376.7647 227.6515 L 477.3529 227.6515 L 577.9411 67.0454"/></g><rect x="75.0" y="55.0" width="513.0" height="265.0" style="stroke-width: 0.5;stroke: rgb(0,0,0);stroke-opacity: 1.0;stroke-linecap: round;stroke-linejoin: round;shape-rendering:crispEdges;; fill: none" clip-path="url(#_1568663162160600clip-0)"/></svg>
